<?xml version="1.0" encoding="utf-8"?>
<!-- Generator: Adobe Illustrator 26.0.1, SVG Export Plug-In . SVG Version: 6.00 Build 0)  -->
<svg version="1.1" id="Capa_1" xmlns="http://www.w3.org/2000/svg" xmlns:xlink="http://www.w3.org/1999/xlink" x="0px" y="0px"
	 viewBox="0 0 1000 350" style="enable-background:new 0 0 1000 350;" xml:space="preserve">
<style type="text/css">
	.st0{fill:none;stroke:#878787;stroke-width:0.509;stroke-miterlimit:10;}
	.st1{fill:none;stroke:#878787;stroke-width:0.509;stroke-miterlimit:10;stroke-dasharray:5.2763,5.2763;}
	.st2{fill:none;stroke:#878787;stroke-width:0.9;stroke-miterlimit:10;stroke-dasharray:4.9738,4.9738;}
	.st3{fill:none;stroke:#878787;stroke-width:0.509;stroke-miterlimit:10;stroke-dasharray:5.0139,5.0139;}
	.st4{fill:#72A355;}
	.st5{fill:#FFFFFF;}
	.st6{fill:#E6ECDE;}
	.st7{fill:#B0C598;}
	.st8{fill:none;stroke:#878787;stroke-width:0.3607;stroke-miterlimit:10;}
	.st9{fill:#1E1E1C;}
	.st10{font-family:'BarlowSemiCondensed-Light';}
	.st11{font-size:13.5592px;}
	.st12{font-family:'BarlowSemiCondensed-SemiBold';}
	.st13{font-size:14.3601px;}
	.st14{fill:none;stroke:#1D1D1B;stroke-width:0.4968;stroke-miterlimit:10;}
	.st15{fill:none;stroke:#1D1D1B;stroke-width:0.539;stroke-miterlimit:10;}
	.st16{fill:none;stroke:#E78A16;stroke-width:0.9213;stroke-miterlimit:10;}
	.st17{font-family:'BarlowSemiCondensed-BoldItalic';}
	.st18{font-size:19.7604px;}
	#alturas{
	opacity:0; transition:all ease 0.25s
	}
	svg:hover #alturas{opacity:1; transition:all ease 0.25s}
</style>
<g>
	<g>
		<line class="st0" x1="124.9" y1="25.7" x2="122.4" y2="25.7"/>
		<line class="st1" x1="117.1" y1="25.7" x2="45.9" y2="25.7"/>
		<line class="st0" x1="43.3" y1="25.7" x2="40.8" y2="25.7"/>
	</g>
</g>
<g>
	<g>
		<line class="st0" x1="744.3" y1="185.9" x2="741.8" y2="185.9"/>
		<line class="st2" x1="736.8" y1="185.9" x2="52.9" y2="185.9"/>
		<line class="st0" x1="50.5" y1="185.9" x2="48" y2="185.9"/>
	</g>
</g>
<g>
	<g>
		<line class="st0" x1="840" y1="250" x2="837.5" y2="250"/>
		<line class="st3" x1="832.5" y1="250" x2="52.8" y2="250"/>
		<line class="st0" x1="50.3" y1="250" x2="47.8" y2="250"/>
	</g>
</g>
<polyline class="st0" points="47.8,282 40.8,282 40.8,298 47.8,298 "/>
<polyline class="st0" points="47.8,266 40.8,266 40.8,282 47.8,282 "/>
<polyline class="st0" points="47.8,250 40.8,250 40.8,266 47.8,266 "/>
<polyline class="st0" points="47.8,234 40.8,234 40.8,250 47.8,250 "/>
<polyline class="st0" points="47.8,218 40.8,218 40.8,234 47.8,234 "/>
<polyline class="st0" points="47.8,202 40.8,202 40.8,218 47.8,218 "/>
<polyline class="st0" points="47.8,185.9 40.8,185.9 40.8,202 47.8,202 "/>
<polyline class="st0" points="47.8,169.9 40.8,169.9 40.8,185.9 47.8,185.9 "/>
<g>
	<path class="st4" d="M715.9,270.9c-0.5-1.3-2-4.5-2.2-5.8c-0.3-2.1-1.7-4.7-3-6c-0.6-0.6,1.1-4-0.1-4c-2.2,0-5.7,3.6-9.8,4.1
		c-2.4,0.3-5.1,1.1-7.2-1.3c-2-2.3-12-9.8-21.8-12.6c-9.8-2.8-16.5,3.2-18.7,2.8c-2.2-0.4-6.1-7.2-8.1-13.7
		c-2-6.5-1.7-28.1-2.6-34.4c-0.9-6.3-3.5-13.8-13.3-15.2c-8.5-1.3-17.5,8.5-18.8,11.9c-1.7,4.6,0.5,8.3,3.5,7.1
		c4.7-1.9,7.5-13.1,14.9-8.5c4.3,2.6,5.3,14.1,5.2,18.8c-0.2,5.8-0.6,16.5,5,28.7c3.5,7.6,7.2,11.4,9.2,13.7c-1.4,3-2.1,5-2.9,8
		c-0.9,3,1.4,8,0.8,10.6c-0.5,2.6-8.6,5.2-9.5,6.7c-1.3,2.2-3.1,6.8-2.8,11.6c0.1,1.4,1.9,4.6,4,4.1c1.1-0.3,1.2-0.8,1.4-1.7
		c0.3-1.3-0.6-2.9-1-4.9c-0.4-2,0.7-3.6,1.7-4.6c1-1,5.2-0.3,7.9-0.7c2.7-0.4,6.9-1.4,10.1-4.8c0.4,1.8-3.1,8.3-3.1,9.9
		c0,1.6,4.4,6.8,5.3,7.2c0.9,0.4,3.8,1.2,4.9,0.8c0.4-0.2,0.5-0.8,0.1-1.1c-0.6-0.4-0.8-0.3-0.7-0.6c0-0.3,0.4-0.3,1-0.3
		c0.6,0,1.3,0.6,1.7,0.7c0.4,0.1,0.9,0.1,1.1-0.4c0.2-0.5-0.7-1.2-0.4-1.1c0.1,0.1,0.2,0.1,0.3,0.2c0.2,0.2,0.4,0.4,0.6,0.5
		c0.4,0.2,1.3-0.6,0-1.4c-0.5-0.3-1-0.8-1.4-0.9c-0.9-0.2-3-0.1-4.8-0.3c-1.7-0.2-2.2-1.4-1.8-2.1s3.8-3,5.6-5.2
		c1.9-2.3,4.4-7.2,4.7-11.5c1.9,0.9,5.6,1.4,8.7,1.7c-4.1,5.4-3.8,18.1-2.5,18.7c1.3,0.6,3.6,1.3,4.7,0.8c1.1-0.5,0.4-2.4-0.1-3.1
		c-0.5-0.6-1.5,0.1-2.4-0.6c-0.9-0.6,6.2-10.8,7.7-14.3c1.1,0.2,1,0.2,2.9,0.2c0.1,1.8,0.3,6.3,1.5,8.4c1.2,2.1,11.2,9.6,13.4,11.1
		c2.2,1.4,7.8,0.6,7.8-0.3c0-0.9-0.5-1.7-2-2.5c-1.5-0.8-3.2,1-4.3,0.2c-1.1-0.8-5.7-9.4-6.9-11.1c-1.1-1.7-0.6-6.7-0.5-8.3
		c0.1-1.4,1-3,0.7-5c0.8-0.4,2.3-1,2.6,0c0.2,0.6,1.8,1.9,2.7,2c1.9,0.2,2.1-2.3,3-2.2c1.8,0.2,3.3,1.2,4.8,1.4
		C714.4,272.3,716.1,271.5,715.9,270.9z"/>
	<path class="st5" d="M710.8,266.1c0.5,0.2,0.5,0.6,0.6,1c-0.3,0.3-0.7,0.4-1,0.3c-0.4-0.1-0.6-0.6-0.6-0.9
		C710,266.2,710.4,266,710.8,266.1z"/>
</g>
<path class="st6" d="M163.8,117c0-4.9,1.2-12.2,1.2-14.4c0-0.9-0.6-3.4-0.9-4.9c0.3-0.3,0.6-7.3-1.2-12.5c-1.5-4.6-5.4-7.3-5.7-7.3
	c-1.8-1.5-3.9-2.4-5.1-2.8c-0.6-0.3-2.1-1.5-2.7-1.5c-1.5-1.5-6.4-4-7.9-4.6c-1.5-0.9-7-2.8-8.8-4.9v-5.8c0.9-0.9,1.2-5.5,1.5-6.7
	c0.9,0.6,2.4-0.9,2.4-1.5c0-1.2,1.5-1.8,1.5-5.5c0.3-1.2,0-3.1-0.9-3.1c-0.9,0-1.8,0.6-1.8,0.6c0-1.2,0.6-4.6,0.6-6.4
	c0-1.5,0.3-10.4-11.8-10.4c-12.4,0-11.8,8.9-11.8,10.4c0,1.8,0.6,5.2,0.6,6.4c0,0-1.2-0.6-1.8-0.6c-0.9,0-1.5,1.8-0.9,3.1
	c0,4,1.5,4.3,1.5,5.5c0,0.6,1.5,2.4,2.4,1.5c0.3,1.2,0.9,5.8,1.5,6.7v5.8c-1.8,2.1-7.3,4-8.8,4.9c-1.5,0.9-6.4,3.4-7.9,4.6
	c-0.6,0.3-2.1,1.2-2.7,1.5c-1.2,0.3-3.3,1.2-5.1,2.8c-0.3,0-4.2,2.8-5.7,7.3c-1.8,5.2-1.5,12.2-1.2,12.5c-0.3,1.5-0.9,4.3-0.9,4.9
	c0,2.1,1.2,9.5,1.2,14.4c-0.6,2.1-2.1,7.3-1.2,12.9c0.9,5.2,2.7,20.2,3,25.1c0,2.4,0.3,4.6,1.2,6.7c0.9,2.1,2.1,6.7,2.1,8.6
	c0,1.2,0.3,2.8,0.9,3.7c0.6,1.2,0.6,4,2.1,5.8c0.6,0.6,4.5,4,7,5.2c1.2,8.6,3.3,17.7,7,23c-0.6,2.4-0.6,7.3,0,10.4
	c0.3,2.4-0.9,11.3,0,13.8c-0.3,1.8-1.5,8.6-1.5,12.2c0,11.6,6,25.4,8.5,33.7c-0.6,1.5-1.5,5.8-0.3,8.3c-0.9,0.6-1.8,2.8-2.1,3.4
	l-3,2.8c-0.6,0-1.8,0.9-1.5,2.1c-0.6,0.6-0.9,2.8,1.5,3.1c0.6,0.3,2.4,0.3,2.7,0c0.6,0,2.1,0.3,2.7,0c0.9,0.3,3,0.6,3.9,0
	c0.9,0.3,3.9,0.9,5.4-0.9c0.6-0.3,0.6-1.2,0.9-1.5c0.3-0.3,0.3-3.7-0.3-4.6c0,0-0.6-0.9-0.3-1.5c0.3-1.2,0-3.1,0-4
	c0-0.9,0.9-2.8,0.9-3.4c0-1.2-2.1-4-2.4-6.7c0.3-4,1.2-15.3,1.2-17.4c0.6-1.5,1.5-5.8,1.5-8c0-3.1-2.4-14.7-2.4-17.7
	c0.9-2.1,2.1-7,2.1-11c0-0.9-0.6-7-0.6-7.7c0.6-1.5,0-14.4-0.3-18.1c0.3-1.5,1.8-11.9,1.8-15.9c0,4,1.5,14.4,1.8,15.9
	c-0.6,3.4-0.9,16.2-0.3,18.1c0,0.3-0.6,6.7-0.6,7.7c0,4,1.2,9.2,2.1,11c0,3.1-2.4,14.7-2.4,17.7c0,2.1,0.9,6.4,1.5,8
	c0,2.1,0.9,13.5,1.2,17.4c-0.6,2.8-2.4,5.5-2.4,6.7c0,0.6,0.9,2.4,0.9,3.4s-0.3,3.1,0,4c0.3,0.9-0.3,1.5-0.3,1.5
	c-0.6,0.9-0.6,4.3-0.3,4.6s0.6,0.9,0.9,1.5c1.5,1.8,4.5,1.2,5.4,0.9c0.9,0.6,3,0.3,3.9,0c0.6,0.3,2.1,0,2.7,0c0.3,0.3,2.4,0.3,2.7,0
	c2.4,0,2.1-2.4,1.5-3.1c0-1.2-1.2-2.4-1.5-2.1l-3-2.8c-0.3-0.6-1.5-2.8-2.1-3.4c1.5-2.4,0.6-7-0.3-8.3c2.4-8.3,8.5-22,8.5-33.7
	c0-3.4-1.2-10.1-1.5-12.2c0.9-2.4-0.3-11.3,0-13.8c0.6-3.1,0.6-8,0-10.4c3.6-5.5,5.7-14.4,7-23c2.7-1.5,6.7-4.6,7-5.2
	c1.2-1.8,1.5-4.9,2.1-5.8c0.3-0.9,0.9-2.4,0.9-3.7c0-1.8,1.2-6.4,2.1-8.6c0.9-2.4,1.2-4.6,1.2-6.7c0-5.2,2.1-19.9,3-25.1
	C165.9,124.3,164.4,119.1,163.8,117z M99.4,150.1c-0.9,3.1-2.1,7.7-2.4,13.2c-0.6-0.3-1.5-0.3-2.4-0.6c-0.3-0.9,5.4-27.8,3.3-38.6
	c-0.3-1.5-1.2-4.6-2.1-6.1c0.6-1.8,1.2-4.9,1.2-7c0,1.8,3.6,8.6,3.6,13.8c0,2.8-2.1,12.2,0.9,15.6C100.9,142.1,99.1,147,99.4,150.1z
	 M150.5,163.2c0-5.8-1.5-10.1-2.4-13.2c0.6-3.1-1.5-8-1.8-9.5c2.7-3.7,0.9-12.9,0.9-15.6c0-5.5,3.6-11.9,3.6-13.8
	c0,2.1,0.6,5.2,1.2,7c-0.9,1.5-1.8,4.9-2.1,6.1c-2.1,10.7,3.3,37.6,3.3,38.6C151.7,162.9,151.1,163.2,150.5,163.2z"/>
<g>
	<path class="st7" d="M905.2,296.2c-0.2-0.6-0.2-1.3-0.8-1.7c-0.7-1.1-1.5-2-2.9-2.4c-1.4-0.4-2.7-0.7-4.2-0.9
		c-1.3-0.1-2.6-0.6-3.7-1.3c-0.2,0-0.4-0.1-0.6-0.1c-0.3-0.6-0.5-1.2-1.3-1.4l-0.1-0.1l0,0c-1.2-1.7-2.4-3.4-3.6-5
		c-0.9-1.2-2.3-1.9-3.4-2.9c-1.1-1-1-2.4,0.3-3.1c0.2,0,0.4,0.1,0.6,0.1l0.1,0.1l0.1,0c1.3,0.6,2.7,1,3.9,1.9c0.9,0.7,2,0.1,3,0.2
		c1-0.3,2-0.5,2.4-1.6l0,0c0.8-0.4,0.4-1,0.1-1.4c-0.7-0.9-1-2.1-1.7-3c-0.6-0.8-0.5-1.9-1.4-2.5c-0.2-0.3-0.4-0.7-0.5-1
		c1.3-3.7-1-6.7-1.9-10l0,0c0-0.3,0.1-0.5,0.1-0.8c-0.1-0.1-0.2-0.3-0.2-0.4c0.1,0.1,0.2,0.3,0.2,0.4c0.9-1.7,0.5-3.6-1-4.6
		c-1.2-0.8-2.5-1.5-3.8-2.2c-1.9-1-2.5-0.8-3.9,0.9c-0.5,0.7-1,0.8-1.8,0.2c-1.8-1.6-3.8-3-6-4.1c-1.8-0.8-3.4-2-5.1-2.8
		c-3.7-1.8-7-4.1-10.1-6.7c-2.1-1.8-4.4-3.3-6.9-4.5c-3-1.5-6-2.7-9.1-4c-1.8-0.7-3.8-1.8-5.6-1.8c-2.5,0-4.8-0.7-7.4-0.6
		c-3.4,0.1-6.4,0.8-9.4,2.2c-3.7,1.6-6.9,4.1-10.5,5.9c-1.7,0.9-3,1.2-4.7,0.4c-0.8-0.4-1.9-0.8-2.8-0.1c-0.5-0.2-1-0.4-1.4-0.6
		c0-0.2-0.1-0.4-0.3-0.3c-0.1,0-0.2,0.2-0.2,0.2c-2.1-0.6-4.1-1.7-6-2.9c-2.5-1.5-4.9-3-6.6-5.5c-1.4-2-3.3-3.8-4.3-6
		c-1.4-2.9-2.6-6-3.2-9.3c-0.1-0.7-0.7-1.1-0.7-1.9c-0.1-3.2-1.3-6.1-1.7-9.2c-0.3-2.4-1.3-4.7-2.2-7c-1-2.5-2.3-4.9-3.5-7.3
		c-0.7-1.5-2.2-2.5-2.2-4.4c0.1-0.9-0.1-1.2-1-1.1c-0.2-0.3-0.4-0.6-0.6-0.8c0.3-0.7,0-0.8-0.6-0.7c-1-0.8-2-1.6-3.3-2.1
		c-0.1-0.8-0.6-0.5-1-0.4c-0.1,0-0.3-0.1-0.4-0.1c0-0.5-0.2-0.5-0.5-0.3c-0.5-0.2-0.9-0.5-1.4-0.7c-0.5-0.5-1.1-0.6-1.7-0.3
		c-0.2,0-0.4,0-0.6,0l0,0c-0.3-0.4-0.6-0.3-0.9,0c-0.2-0.1-0.4-0.1-0.6-0.2c-0.3-0.4-0.5-0.5-0.8,0c-0.5-0.1-1-0.3-1.5-0.4
		c-0.9-0.7-1.9-0.7-2.7,0.1c-0.1,0.1-0.2,0.1-0.3,0.2c0.4,0.6,0.9,0.6,1.4,0.1c0.3-0.1,0.6-0.2,0.8-0.2c-0.3,0.1-0.6,0.2-0.8,0.2
		c-0.5,0.5-1,0.5-1.4-0.1c-0.3-0.2-0.6-0.1-1,0c-0.6-0.3-1.1,0-1.7-0.1c0-0.4-0.3-0.5-0.5-0.4c-1.1,0.3-2.1,0.7-3.1,1.1
		c-0.2,0.1-0.2,0.4-0.1,0.6c-0.3,0-0.7,0-1,0c-1-0.6-2.7,0.1-3.2,1.3c-0.1,0.1-0.2,0.1-0.4,0.2c-0.6-0.1-1.1-0.1-1.1,0.7
		c-0.2,0-0.5,0.1-0.7,0.1c-0.9,0-2.5,1.3-2.9,2.3c0,0-0.1,0.1-0.1,0.2c-0.4-0.1-0.5,0.1-0.5,0.4c-0.2,0.1-0.4,0.3-0.6,0.4
		c-0.4-0.1-0.6,0-0.6,0.4l-0.1,0.1c-1.2,0.9-0.9,2.3-1,3.5c0,0.8,0,1.4-0.6,2.1c-0.8,0.9-0.6,1.7,0.6,2c0.6,0.1,1.2,0.2,1.5,0.7
		c0.7,1.2,2.1,0.8,3.1,1.3c0.3,0.2,1,0.2,1.2-0.4c0.2-0.1,0.4-0.1,0.6-0.2c1.1,0.2,2.1,0.2,2.8-0.8c0.1-0.1,0.2-0.2,0.4-0.2
		c0.1,0.1,0.3,0.1,0.4,0.2c0.1,0.8,0.6,0.4,0.9,0.2c0.8-0.6,1.6-0.8,2.6-1c1.8-0.3,3.6-0.8,5.4-1.3c0.3,0,0.6,0,1,0.1
		c0.6,1,1.4,0.9,2.3,0.5c0.2,0,0.4,0.1,0.6,0.1c0.9,0.9,1.4,2.2,3,2.2c0.2,0.2,0.5,0.4,0.7,0.7c0,1.3,0.6,2.5,1.1,3.6
		c0.4,0.8,0.4,2,1.4,2.5c0.1,0.1,0.1,0.2,0.2,0.3c0,0.4,0,0.8,0.1,1.1c0.8,2.3,1.6,4.6,2.4,6.9c0.1,0.4,0.5,0.8,0.1,1.2
		c-0.6,0.6-0.5,1.1,0,1.7c0.4,0.5,0.4,1.1,0.1,1.6c-0.5,1.2-0.1,2.2,0.5,3.3c0.5,0.7,0.9,1.6,0.5,2.4c-0.4,0.8-0.1,1.3,0.3,2
		c0.5,0.7,1.5,1.4,1.1,2.4c-0.6,1.3,1.3,2.2,0.4,3.4c0,0,0.1,0.2,0.2,0.2c1.7,0.3,1.7,2.1,2.8,3c0.8,0.6,1.2,1.5,1.1,2.5
		c-0.1,0.6,0.2,1,0.6,1.4c0.6,0.5,0.8,1.2,1.3,1.7c0.7,0.9,1.1,2,2.3,2.3c0.7,0.2,1.1,0.7,1.7,1.1c1.1,0.7,1.4,1.8,2.2,2.6
		c0.9,0.8,2.3,1,2.6,2.4c0.1,0.3,0.5,0.4,0.9,0.3c0.2,0,0.5-0.1,0.6,0.2c0.5,2.7,4,1.9,4.9,4.2c0,0,0.1,0,0.1,0
		c1.2,0.3,2,1.8,3.6,1.2c0,0,0.3,0.2,0.3,0.3c-0.3,1.5,0.8,0.7,1.3,0.7c0.4,0,0.6-0.1,0.9,0.4c0.6,0.8,1.4,1.5,2.3,2
		c0.8,0.4,1.7,0.4,2.2-0.6c0.4-0.2,0.8-0.4,1.2-0.5l0,0c0.2,0.4-0.3,1.4,0.8,1.1c0.7-0.2,1.4-0.3,1.8,0.4c0.5,1.1,1.7,2.2,0.9,3.4
		c-1.4,2.2-2.3,4.5-2.7,7c-0.4,2.4-2.2,4.1-3.1,6.4c-0.4,1-1.4,2.1-2.4,2.8c-1.7,1.2-3.5,2.3-5.2,3.6c-0.3,0.2-0.6,0.5-0.3,1
		c-0.1,0.1-0.1,0.1,0,0.2c-0.8,0.4-1.3,1.1-1.6,1.9c-0.4,0.7-0.4,1.5-0.4,2.2c-0.4,3.1-0.2,6.3-1.5,9.2l-0.1,0l0.1,0
		c-0.1,0.3-0.2,0.6-0.2,0.9c-0.2,0.1-0.2,0.3-0.1,0.5c-0.1,0.8-0.2,1.5-0.4,2.3c-0.2,0.1-0.2,0.3,0,0.4c-0.2,0.4-0.2,0.8,0,1.2
		c-0.3,0.9,0.3,1.4,0.8,1.8c0.4,0.3,0.8,0.8,1.4,0.4c0.5-0.3,0.3-0.8,0.1-1.2c-0.2-0.9,0.2-1.1,1-1.2c0.7,0,1.4,0,2,0.5
		c1.7,1.2,3.6,1.2,5.5,1c0.9-0.1,2.1-0.1,2.3-1.5c0.3-1-0.2-1.8-1-2.4c-1-0.9-2.1-1.7-3.1-2.5c-1-0.8-1.7-1.8-1.9-3.1
		c-0.1-0.5,0-1,0.7-1c3.2,0,6.3-1,9.4-1.3c0.9-0.1,1.8-0.3,2.6-0.5c2.5-0.8,4.8-2.3,7.2-3.4c1.6-0.7,2.7-2.2,4.4-2.6
		c1.3-0.4,2.3-0.9,3-2.2c0.1-0.3,0.2-0.5,0.3-0.8c-0.1,0.3-0.2,0.5-0.3,0.8c0.2,0.1,0.5,0.2,0.5,0.4c0.1,1.4,1,2.6,1.4,3.9
		c0.4,1.4,0.2,3.1,1.6,4c0.3,1.1,1.2,2,1.2,3.2c-0.1,0.4,0,0.6,0.4,0.7c0,1.3,1.1,2.2,1.6,3.2l0,0c0.3,2.2,0.5,4.5,3,5.5
		c-0.1,0.1,0,0.2,0.1,0.2c0.5,0.9,0.5,2,0.8,2.9c-0.1,0.2-0.1,0.4,0.2,0.5c1.2,2.9,1.4,3,4.2,2.3c0.3,0,0.4-0.3,0.4-0.5
		c0.1-1.9,0.4-2.3,2.3-1.7c2,0.6,4,0.5,6,0c2.3-0.5,4.6-1.4,7.1-1.4c0.5,0,1,0.2,1.2-0.4c0.2-0.5-0.1-0.9-0.6-1.2
		c-0.5-0.8-0.8-2-1.7-2.1c-1.3-0.1-2.1-0.7-2.8-1.5c0-0.6,0-1.2,0-1.7l0-0.1c0.6-0.8,1.1-1.5,0.8-2.6c0.1-0.2,0.1-0.5,0.2-0.7
		c0.6,0.1,1.1-0.3,1-0.7c-0.2-1,0.3-1.5,0.8-2.1c0.2-0.3,0.5-0.6,0.1-1c0-0.1,0.1-0.2,0.1-0.2c0-0.2,0-0.3,0.1-0.5
		c0,0.2,0,0.3-0.1,0.5c1.1-0.2,1.7-1,2.3-1.8c0.1-0.1,0.2-0.1,0.3-0.2c0.8,0,1.4-0.2,1.7-1l0,0c2.1,0,3.5-1.1,4.8-2.7l0.1-0.1
		c1.1-1,3.5-1.5,4.6-0.9c0.3,0.1,0.5,0.4,0.8,0.3c2.1-0.6,2.8,0.6,2.8,2.4l0,0c-0.1,0.2-0.1,0.6,0.1,0.6c1.1-0.2,1.2,0.6,1.5,1.3
		c0.1,0.2,0.4,0.4,0.6,0.6c1.3,1.3,2.8,2.4,3.9,3.9c0.5,0.7,0.9,1.2,1.7,1.5c0.4,0.1,0.6,0.5,0.7,0.9c1.4,1.4,2.9,2.5,4.8,3.1
		c1.8,0.2,3.5,1.1,5.3,1.1c0.4,0.3,1,0.7,1.3,0c0.6-1.1,1.4-0.7,2.2-0.5c2.4,0.6,4.8,0.7,7.3,0.5c2.2-0.2,3.9,0.7,5.1,2.7
		c0.5,0.3,0.4,1.2,1.2,1.1C905.8,298.6,906,298.3,905.2,296.2z"/>
	<path class="st5" d="M887.8,270.5c0-0.4-0.1-0.8-0.5-0.9c-0.5-0.1-0.8,0.1-1.1,0.5c-0.2,0.3-0.4,0.6-0.2,1.1
		c0.2,0.7,0.8,0.5,1.3,0.6c0.3-0.2,0.6-0.4,0.8-0.6C887.8,271,887.7,270.8,887.8,270.5z"/>
</g>
<line class="st8" x1="35.2" y1="298" x2="705" y2="298"/>
<polyline class="st0" points="47.8,153.9 40.8,153.9 40.8,169.9 47.8,169.9 "/>
<polyline class="st0" points="47.8,137.9 40.8,137.9 40.8,153.9 47.8,153.9 "/>
<polyline class="st0" points="47.8,121.9 40.8,121.9 40.8,137.9 47.8,137.9 "/>
<polyline class="st0" points="47.8,105.9 40.8,105.9 40.8,121.9 47.8,121.9 "/>
<polyline class="st0" points="47.8,89.9 40.8,89.9 40.8,105.9 47.8,105.9 "/>
<polyline class="st0" points="47.8,73.8 40.8,73.8 40.8,89.9 47.8,89.9 "/>
<polyline class="st0" points="47.8,57.8 40.8,57.8 40.8,73.8 47.8,73.8 "/>
<polyline class="st0" points="47.8,41.8 40.8,41.8 40.8,57.8 47.8,57.8 "/>
<polyline class="st0" points="47.8,41.8 40.8,41.8 40.8,57.8 47.8,57.8 "/>
<polyline class="st0" points="47.8,25.7 40.8,25.7 40.8,41.7 47.8,41.7 "/>
<g>
	<text transform="matrix(0.9883 0 0 1 11.9639 31.0132)" class="st9 st10 st11">170</text>
</g>
<g>
	<text transform="matrix(0.9883 0 0 1 11.6758 63.5767)" class="st9 st10 st11">150</text>
</g>
<g>
	<text transform="matrix(0.9883 0 0 1 11.6426 92.9067)" class="st9 st10 st11">130</text>
</g>
<g>
	<text transform="matrix(0.9883 0 0 1 12.7544 127.4888)" class="st9 st10 st11">110</text>
</g>
<g>
	<text transform="matrix(0.9883 0 0 1 13.5991 160.0532)" class="st9 st10 st11">90</text>
</g>
<g>
	<text transform="matrix(0.9883 0 0 1 13.9272 189.3838)" class="st9 st10 st11">70</text>
</g>
<g>
	<text transform="matrix(0.9883 0 0 1 10.3252 12.2056)" class="st9 st12 st13">cm</text>
</g>
<g>
	<text transform="matrix(0.9883 0 0 1 13.6392 222.8867)" class="st9 st10 st11">50</text>
</g>
<g>
	<text transform="matrix(0.9883 0 0 1 13.6055 255.4521)" class="st9 st10 st11">30</text>
</g>
<g>
	<text transform="matrix(0.9883 0 0 1 14.7178 284.7813)" class="st9 st10 st11">10</text>
</g>
<g>
	<g>
		<path class="st4" d="M439.4,297.5c-0.1-0.5-0.8-0.9-1.4-1.2c-0.4-0.2-1-0.5-1.7-0.9C436.4,296,439.6,298.3,439.4,297.5z"/>
		<path class="st7" d="M449.3,295.4c-1.9-0.4-3.8-0.7-5.6-1.2c-0.7-0.2-1.6-0.4-2-0.9c-2.4-3.3-9.2-9.5-11.5-12.9
			c-0.6-0.8-1.1-1.8-1.3-2.8c-0.2-1.1-0.2-2.2-0.1-3.3c0.2-2.9,0.5-5.7,0.7-8.6c0-0.8,0.3-1.2,1-1.5c0.6-0.2,1.1-0.5,1.6-0.7
			c1.4-0.6,2.8-1.1,4.2-1.6c0.2-0.1,0.6-0.1,0.7,0c1.1,0.7,2.1,0.4,3-0.2c1.7-1,3-3.1,1.1-5c-0.3-0.3-0.6-0.7-0.9-1
			c-1.1-1.3-1.7-2.8-1.7-4.6c0-1.8-0.5-3.4-1.9-4.7c-0.9-0.8-1.7-1.7-3-1.9c-1.3-0.2-1.3-0.3-1.5-1.6c0,0-0.1-0.1-0.2-0.1
			c-0.3,0.3-0.5,0.7-0.8,1c-0.2,0.2-0.4,0.3-0.6,0.4c-1,0.2-1.9,0.4-2.9,0.5c-1.8,0.2-3.5,1.1-5.4,1c-3.1-0.2-6-0.9-9-1.7
			c-4.3-1.2-8.6-2.4-13.1-2.5c-5.2-0.1-10.4,0.2-15.4,1.7c-6,1.8-13.9,1.5-19.3,6.6c-5.6,5.5-10.7,14-11,21.7
			c-1.1,12.8-1.4,17.3-2.1,22.4c-1,7-0.6,5.7-1.4,12.7c-0.7,6.2-1.4,12.5-2.1,18.7c-0.4,3.6-0.8,7.2-1.1,10.8
			c-0.2,3.1-0.3,6.3-0.4,9.4c-0.1,1.8,0.5,3.4,2,4.6c0.7-0.5,1.5-0.9,2-1.5c0.7-1.2,1.4-2.5,1.7-3.8c0.7-2.6,1.3-5.3,1.8-8
			c0.7-3.6,1.4-7.2,1.9-10.8c0.6-3.8,1-7.5,1.4-11.3c0.5-4.2,0.9-8.4,1.4-12.6c0.5-4.6,1.4-7.1,2.2-13.4c1.8-9.6,1.4-8.5,2.6-15.2
			c0.8-5,2.7-16,11.1-18.6c0.9-0.1,1.8,0,2.7-0.1c-0.2,2.1-0.4,2-0.3,4c0,4.3,0.5,8.7,1.2,12.9c0.4,2.4,0.7,4.8,0.8,7.2
			c0.1,2.5-0.8,4.8-2.6,6.6c-0.8,0.9-1.7,1.6-2.6,2.4c-1.6,1.4-1.9,3.4-0.7,5.1c0.8,1.1,1.7,2.3,2.7,3.2c1.8,1.6,3.7,3,6.3,2.6
			c0.2,0,0.5,0,0.7,0.1c0.6,0.1,1.1,0.3,1.7,0.5c0.2,0.1,0.5,0.3,0.9,0.5c0.1,0,0.1-0.1,0.2-0.1c-0.3-0.9,0.2-1.1,0.8-1.1
			c0.3,0,0.6,0.1,0.9,0.3c0.5,0.2,0.8,0.1,0.7-0.4c0-0.2,0-0.4,0-0.6c0.4,0,0.7,0.1,1,0.1c0.2,0,0.6-0.1,0.7-0.2
			c0-0.1,0.1-0.3,0.1-0.4c2.1,1.3,4.2,2.3,6.5,1.2c0.2-0.1,0.5-0.1,0.7-0.1c0.6,0,1.2,0.1,1.8,0.1c0.3,0.1,0.6,0.2,1,0.3
			c0-0.1,0.1-0.1,0.1-0.2c-0.6-0.9-0.1-1.3,0.5-1.4c0.3-0.1,0.7,0,1,0.1c0.5,0.1,0.8-0.1,0.6-0.7c-0.1-0.2-0.1-0.4-0.2-0.7
			c0.4,0,0.7,0,1-0.1c0.2-0.1,0.6-0.3,0.6-0.5c0-0.5,0-1.1-0.2-1.6c0-0.1-0.5-0.2-0.7-0.2c-0.7,0-1.3,0.3-2,0.2
			c-0.7-0.1-1.2-0.1-1.8,0.1c-0.6,0.3-1.4,0.6-2,0.4c-1-0.2-2-0.6-2.8-1.2c-0.6-0.4-0.4-2.3-0.6-3c-0.2-0.5,0.3-1.4,0.7-1.9
			c1-1.2,2-2.4,2.8-3.7c0.1-0.3,0.2-0.6,0.3-0.9c0.1,0,0.3,0,0.4,0c0.6-0.2,1.2-0.5,1.7-0.8c1.6-0.9,3.2-2,4.2-3.6
			c0.3-0.5,0.8-1,1.2-1.4c0.8-1,1.6-2,2.3-2.9c0.4,0.3,0.8,0.6,1.3,1.1c0,1-0.1,2.3,0.1,3.5c1.2,5.4,1.6,8,1.7,9.2
			c0.3-0.5,1.2-0.4,3.8,3c1.9,2.4,4,4.5,7,5.3c0.7,0.2,1.3,0.6,2,0.8c1.5,0.4,3,0.7,4.4,1.1c0.6,0.2,1.3,0.7,1.7,1.2
			c0.3,0.4,0.4,0.5,0.9,0.3c-0.1-0.4-0.2-0.9-0.3-1.2c0.5,0,1,0,1.8,0.1c0,0,0.1,0.2,0.2,0.2c0.2,0.1,0.4,0.2,0.6,0.1
			c0.1,0,0.2-0.3,0.2-0.5c0.1-0.2,0.1-0.5,0.1-0.7c0.3,0,0.5,0,0.8,0.2c0.4,0.2,0.7,0.4,0.9-0.1c0.1-0.3,0.3-0.6,0.6-1
			c-0.2-0.2-0.5-0.6-0.7-0.6c-1,0.1-1.8-0.2-2.6-0.7c-0.2-0.1-0.5-0.1-0.8-0.1c-1.3,0-2.5-0.5-3.5-1.4c-1.9-1.8-3-4.2-4.3-6.4
			c-0.2-0.3-0.4-0.7-0.5-1.1c0.3,0.1,0.5,0.3,0.8,0.5c1.1,1,2.1,2.1,3.4,2.8c1.7,0.9,6.3,3.5,9.1,5c0-0.1,0-0.1,0-0.1
			c0-0.2,4.5,2.3,4.6,2.3c1-0.3,1.9-0.6,2.9-0.7c0.6-0.1,1.3,0.1,2,0.1c0-0.1,0-0.2,0.1-0.2c0.2,0.2,0.3,0.4,0.6,0.7
			c0.3-0.3,0.4-0.5,0.7-0.7c0.3-0.2,0.6-0.3,0.9-0.3c0.4,0.1,0.6,0.5,1.1,0.1c0.3-0.3,0.8-0.3,1.1-0.5c0-0.1,0-0.2,0-0.3
			C449.9,295.7,449.6,295.4,449.3,295.4z M388.1,295.8c-0.6-0.2-1.1-0.4-1.8-0.3c-0.7,0.1-1.5,0.2-2.1-0.1c-0.9-0.4-1.8-0.9-2.4-1.6
			c-0.4-0.5-0.8-1.3-0.7-2c0.1-0.5,0.8-1,1.4-1.2c1.1-0.4,2.2-0.9,3.2-1.4c-0.3,1.9,0.5,3.7,2.2,4.9c0.8,0.5,1,1.2,1.3,1.7
			C388.9,296,388.5,295.9,388.1,295.8z"/>
		<path class="st4" d="M410.8,288.5C410.5,289,410.9,290.1,410.8,288.5L410.8,288.5z"/>
	</g>

		<ellipse transform="matrix(0.9903 -0.1387 0.1387 0.9903 -31.1311 62.8581)" class="st5" cx="435.5" cy="254.8" rx="1.5" ry="0.9"/>
</g>
<g>
	<path class="st7" d="M216.1,239.2c0.1-2.5,0.7-4.8,1.6-7.1c1.2-3.3,2.8-6.4,4.7-9.3c2.3-3.7,4.8-7.1,7.3-10.6
		c1.5-2.2,2.9-4.5,3.6-7.1c1.1-4.2,0.3-7.9-2.2-11.3c-1.5-2.1-3.6-3.4-6.1-3.9c-1.2-0.2-2.3-0.2-3.5,0.1c-1.3,0.3-2.7-0.3-3.4-1.5
		c-0.7-1.2-0.5-2.7,0.4-3.7c0.7-0.8,1.5-1,2.5-1.2c5.2-0.9,9.7,0.7,13.5,4.3c3.1,2.9,4.9,6.5,5.6,10.7c0.7,3.9,0,7.6-1.5,11.2
		c-1.1,2.6-2.7,4.9-4.3,7.2c-2.7,3.7-5.4,7.4-7.6,11.4c-1.5,2.6-2.7,5.4-3.5,8.3c-0.3,1.3-0.5,2.6-0.5,3.9c0,2.5,1,4.5,2.9,6.2
		c2.4,2.1,5.3,3.3,8.2,4.1c0.8,0.2,1.7,0.4,2.5,0.6c0.2,0,0.3,0.1,0.4-0.1c1.5-2.1,3.6-3.4,5.9-4.3c2.6-0.9,5.3-1.2,8.1-1.2
		c2.1,0,4.1,0.2,6.2,0.4c3.8,0.5,7.6,1.2,11.4,2.1c2,0.5,4,1.1,6,1.6c1.9,0.5,3.7,0.8,5.7,0.8c0.5,0,1.1,0,1.6-0.1
		c0.3,0,0.6-0.3,0.9-0.4c1-0.2,1.9-0.2,2.9,0c1.3,0.2,2.5,0,3.7-0.2c1.4-0.3,2.8-0.8,4.1-1.4c0.6-0.3,1.2-0.6,1.7-1
		c1.4-1,2.9-1.8,4.6-2.2c0.2,0,0.2-0.1,0.3-0.3c0.1-0.4,0.1-0.8,0.5-1c0.1,0,0-0.1,0.1-0.1c0.2-0.7,0.8-1,1.5-0.9
		c0.2,0.1,0.4,0.2,0.6,0.3c0.2,0.2,0.3,0.4,0.5,0.6c0.5,0.7,1.1,1.3,2.1,1.5c0.6,0.1,1.2,0.4,1.6,0.9c0.4,0.5,0.9,1,1.1,1.7
		c0,0.1,0.1,0.3,0,0.4c-0.4,0.7,0.1,1.3,0.3,1.8c0.6,1.1,1.6,1.9,2.7,2.6c0.7,0.5,1.4,1,2.1,1.6c0.5,0.5,0.5,0.8,0,1.3
		c-0.6,0.5-1.2,0.9-1.8,1.3c-1.1,0.7-2.2,0.8-3.5,0.7c-1.9-0.1-3.8,0-5.8,0.2c-1.1,0.1-2.2,0.3-3.3,0.5c-0.2,0-0.2,0.1-0.2,0.3
		c-0.1,0.7-0.3,1.3-0.4,2c-0.2,1.1-0.9,2-1.6,2.9c-2,2.6-3.9,5.3-5.8,8c-1.1,1.5-1.9,3.2-2.9,4.7c-0.5,0.7-1,1.5-1.6,2.2
		c-0.1,0.2-0.2,0.3-0.2,0.5c0.1,1,0.1,2.1,0.4,3.1c-0.1-0.1,1.2,4.7,1.2,4.7c0.5,2,0.9,4,1.2,6c0.1,0.6,0.2,1.2,0.3,1.8
		c0,0.2,0.1,0.3,0.3,0.3c0.8,0.1,1.6,0.3,2.4,0.6c0.1,0,0.2,0,0.3,0c0.8,0,1.5,0,2.3,0c1,0,1.9,0.3,2.8,0.7c0.3,0.1,0.3,0.4,0.1,0.6
		c-0.2,0.2-0.5,0.3-0.7,0.3c-0.7,0-1.4-0.1-2.1,0c-0.6,0.1-1.2-0.1-1.8-0.1c-0.8,0-1.5-0.1-2.3,0c-0.5,0-1.1,0-1.6,0
		c-0.5,0-0.9,0-1.4,0c-1,0-2,0-3-0.1c-0.3,0-0.7-0.2-0.8-0.5c-0.3-0.5-0.7-1-1-1.5c-0.9-1.4-1.6-2.9-2.4-4.4
		c-1.1-1.9-2.3-3.7-3.3-5.7c-0.7-1.3-1.3-2.6-1.8-4.1c-0.6-1.6-0.6-3.1,0.1-4.6c0.3-0.7,0.5-1.5,0.8-2.3c0.1-0.2,0.1-0.3-0.2-0.3
		c-1.8-0.1-3.6-0.3-5.4-0.6c-1.5-0.2-3-0.5-4.5-0.7c-1.4-0.2-2.8-0.4-4.3-0.7c-1.4-0.2-2.8-0.3-4.2-0.4c-0.4,0-0.8,0-1.1,0
		c-0.1,0-0.2,0-0.2,0.2c-0.1,1.4-0.2,2.8-0.6,4.2c0,0,0,0.1,0,0.2c0.3,1.8-0.4,3.4-1,5c-0.8,1.8-1.9,3.5-3,5.1
		c-1.9,2.8-3.9,5.6-5.8,8.3c-0.1,0.1-0.2,0.3-0.4,0.5c0.4,0.1,0.8,0.2,1.2,0.3c0.7,0.2,1.4,0.4,2.1,0.6c0.8,0.3,1.6,0.3,2.4,0.2
		c2-0.2,3.9,0.1,5.8,1c0.2,0.1,0.4,0.1,0.4,0.4c0,0.3-0.2,0.4-0.4,0.5c-0.3,0.2-0.7,0.2-1.1,0.2c-0.9,0-1.7-0.1-2.6-0.3
		c-0.2,0-0.5,0-0.7,0.1c-0.4,0.2-0.8,0.2-1.2,0.2c-1,0-1.9-0.3-2.9-0.4c-0.8-0.1-1.6-0.1-2.4,0c-1.3,0.1-2.6,0-3.9,0
		c-1.3,0-2.5,0-3.8-0.1c-0.5,0-0.9,0-1.4-0.2c-0.9-0.2-1.8-0.9-1.4-2.1c0.1-0.2,0.1-0.4,0.2-0.7c0.7-3.2,1.8-6.2,2.9-9.3l0.9-2.4
		c0.2-0.5,0.4-0.9,0.6-1.4c0.5-1,0.6-2.1,0.8-3.1c0.1-0.4,0-0.7-0.2-1.1c-0.7-1.5-1.3-3-2.1-4.4c-0.1-0.2-0.2-0.3-0.2-0.5
		c0-0.1-0.1-0.3,0-0.3c0.4-0.2,0.1-0.5,0-0.7c-0.1-0.3-0.2-0.6-0.1-0.9c0-0.1,0.1-0.2,0-0.4c-0.1-0.1-0.1-0.3,0-0.4
		c0.2-0.4,0-0.7-0.2-1.1c-0.1-0.3-0.2-0.7-0.3-1c0-0.1,0-0.1,0-0.2c0.4-0.5,0-0.8-0.1-1.2c0.1-0.2,0.3-0.4,0-0.7
		c-0.4-0.7-0.8-1.5-1.1-2.2c-0.1-0.3-0.3-0.6-0.1-0.9c0.1-0.1,0-0.2,0-0.3c-0.4-1.2-0.7-2.4-0.9-3.6c0-0.2-0.1-0.3-0.3-0.3
		c-2.5-0.5-5-1.3-7.4-2.3c-3.2-1.4-6-3.3-8.2-6c-1.6-1.9-2.5-4.1-2.9-6.6c-0.1-0.5-0.2-1-0.2-1.5c0-0.4,0.2-0.8,0-1.1
		c0-0.1,0-0.1,0-0.2L216.1,239.2z"/>
	<path class="st5" d="M306.8,251.1c0.1-0.1,0.5,0.1,0.4-0.3c-0.1-0.5-0.2-1-0.5-1.4c-0.1-0.2-0.4-0.3-0.6-0.1
		c-0.3,0.4-0.1,1.5,0.4,1.7C306.6,251.1,306.7,251.1,306.8,251.1z"/>
</g>
<g>
	<path class="st7" d="M576,264.7c0.1-0.2,0.2-0.5,0.2-0.8c0.1-0.6-0.4-1.1-1.1-1.1c-0.4,0-0.9,0.1-1.3,0.2c-0.9,0.2-1.8,0.5-2.8,0.7
		c-0.5,0.1-0.9,0-1.4,0c-0.7-0.1-1.5-0.2-2.2-0.2c-1.4,0-2.8,0.1-4.2-0.3c-0.7-0.2-1.4-0.3-2.1-0.5c-1.5-0.5-3-1-4.4-1.7
		c-1.4-0.6-2.7-1.4-4-2.1c-2.3-1.3-4.5-2.7-6.8-4c-2.2-1.2-4.5-2-6.8-2.8c-0.1,0-0.3,0-0.6-0.1c0.1,0.2,0.1,0.4,0.2,0.5
		c0.1,0.1,0.3,0.1,0.5,0.2c-0.6,0.1-0.9,0-1-0.5c0-0.3-0.1-0.4-0.4-0.4c-3.1-0.8-6.2-1-9.3-0.8c-1.8,0.1-3.6,0.1-5.4-0.2
		c-0.6-0.1-1.2-0.3-1.8-0.6c-0.1-0.1-0.3-0.3-0.3-0.4c-0.1-1-0.2-2-0.1-3c0.1-1.2,0.3-2.5,0.6-3.7c0.3-1.3,0.9-2.4,1.6-3.5
		c2.6-4,5.8-7.4,9.5-10.4c1.7-1.4,3.5-2.8,5.3-4.2c1.1-0.9,2-2,2.6-3.4c0.5-1.1,0.7-2.2,0.7-3.4c0.1-2.2-0.1-4.4-0.6-6.5
		c-0.7-2.5-2-4.6-4.1-6.1c-1.3-1-2.7-1.8-4.2-2.6c-2.4-1.2-4.8-1.6-7.4-1.4c-1.6,0.1-3.3,0.2-4.9,0.3c-1.7,0.1-3.4,0.4-5,0.9
		c-1,0.3-1.9,0.8-2.8,1.3c-1.5,0.8-3,1.6-4.4,2.7c-1.2,1-2.3,2.1-2.9,3.6c-0.4,0.8-0.5,1.7-0.4,2.6c0,0.2,0.1,0.4,0.2,0.5
		c0.6,0.6,1.3,1,2.1,1.1c0.5,0,1-0.1,1.4-0.2c2.1-0.6,4.2-1.2,6.2-1.9c1.2-0.4,2.3-1,3.5-1.6c2-0.9,4.1-1.6,6.3-1.5
		c2.5,0.1,4.3,1.3,5.4,3.5c0.6,1.1,0.4,2.3,0.2,3.5c-0.5,2.5-2,4.4-3.8,6c-1.2,1.1-2.5,2.2-3.8,3.2c-2.2,1.8-4.3,3.8-6,6.1
		c-1.4,2-2.6,4.1-3.6,6.3c-0.6,1.3-1.2,2.6-1.6,4c-0.5,1.5-0.8,3.1-1.1,4.6c-0.3,1.4-0.3,2.8-0.3,4.2c0.1,1.7,0.5,3.4,1.4,4.9
		c0.6,1.1,1.4,2.2,2.1,3.2c0.1,0.2,0.2,0.4,0.2,0.6c-0.3,2.2-0.3,4.3,0,6.5c0.3,2.2,0.9,4.3,1.8,6.3c0.7,1.6,1.7,3.2,3.3,4.1
		c0.9,0.5,1.9,0.9,2.9,1.4c0.4,0.2,0.8,0.4,1.2,0.6c0.1,0.1,0.2,0.3,0.2,0.4c-0.1,1.2-0.3,2.3-0.4,3.4c-0.2,1.8-0.2,3.5,0.4,5.2
		c0.5,1.2,1.3,2,2.4,2.7c0.5,0.3,0.9,0.5,1.4,0.8c0.1,0.1,0.2,0.2,0.3,0.3c0.6,1.6,1.9,2.4,3.3,3.2c0.9,0.5,1.8,0.8,2.7,1.3
		c0.4,0.2,0.8,0.5,1.2,0.8c0.6,0.3,1.2,0.4,1.8,0.5c0.8,0,1.5,0.3,1.9,1.1c0.1,0.2,0.3,0.4,0.5,0.6c0.2,0.1,0.4,0.2,0.6,0.1
		c0.1-0.1,0.3-0.4,0.2-0.5c-0.1-0.4-0.3-0.9-0.5-1.3c-0.1-0.1-0.2-0.3-0.3-0.5c0.7,0.3,1.2,0.7,1.6,1.2c0,0,0.1,0.1,0.1,0.1
		c0.2,0.2,0.5,0.6,0.8,0.4c0.2-0.1,0.2-0.5,0.1-0.8c-0.1-0.7-0.3-1.3-0.5-1.9c0.6,0.2,1.1,0.7,1.5,1.3c0.1,0.2,0.2,0.4,0.4,0.4
		c0.2,0.1,0.5,0.1,0.5,0c0.1-0.2,0.3-0.5,0.2-0.7c-0.1-0.4-0.3-0.8-0.6-1.1c-0.4-0.5-0.8-0.9-1.2-1.4c0-0.1-0.1-0.1-0.2-0.2
		c0.7,0,1.3-0.2,1.8,0.4c0.1,0.1,0.4,0.1,0.5,0c0.1-0.1,0.2-0.3,0.1-0.5c-0.3-1.1-1.1-1.7-2.3-1.7c-0.8,0-1.6,0-2.3-0.1
		c-0.2,0-0.4-0.2-0.5-0.3c-0.4-0.5-0.8-0.9-1.3-1.4c0.5-0.3,0.9-2.7,1.3-3.1c0.7-0.7,1.4-1.5,2.1-2.3c0.2-0.3,0.3-0.6,0.5-1
		c0.3-0.1,0.5,0,0.8,0.3c0.8,1,1.5,2.2,1.8,3.5c0.6,2,1.2,4.1,1.7,6.1c0.6,2,1.6,3.6,3.4,4.6c0.4,0.2,0.9,0.4,1.4,0.5
		c0.3,0.1,0.6,0.2,0.8,0.4c0.3,0.2,0.6,0.4,0.9,0.6c0.1,0,0.2,0,0.3,0c0-0.1,0-0.2,0-0.3c-0.1-0.3-0.2-0.5-0.4-0.9
		c0.1,0.1,0.2,0.1,0.3,0.1c0.3,0.2,0.5,0.4,0.8,0.6c0.1,0.1,0.4,0.1,0.5,0c0.1,0,0.1-0.3,0.1-0.4c0-0.3-0.1-0.6-0.2-0.9
		c0.4-0.2,0.7,0,1,0.2c0.2,0.1,0.3,0.2,0.4,0.2c0.2,0,0.4,0,0.6,0.1c0-0.2,0-0.4-0.1-0.6c-0.1-0.2-0.2-0.3-0.3-0.5
		c0,0,0.1-0.1,0.1-0.1c0.2,0.1,0.3,0.2,0.5,0.4c0.2,0.2,0.5,0.4,0.7,0.1c0.3-0.3,0.2-0.5,0-0.8c-0.8-0.9-1.7-1.6-2.9-1.8
		c-0.3-0.1-0.6-0.3-0.7-0.6c-0.1-0.3-0.2-0.6-0.2-0.9c0-0.2,0.1-6.1,0.1-6.1c0.1-0.5,0-1,0.4-1.4c1.8-2.1,3.8-3.9,6.2-5.4
		c0.8-0.5,1.6-1.1,2.1-2c0.1-0.2,0.4-0.3,0.7-0.4c1.3-0.5,2.7-0.8,4.1-0.6c0.5,0.1,1,0.1,1.5,0.3c0.5,0.2,1,0.6,1.5,0.9
		c0.5,0.3,1,0.5,1.5,0.7c0.3,0.1,0.7,0.2,1,0.2c0.3,0,0.6,0,0.9,0c0.1,0,0.2,0,0.3,0c1.3,0.3,2.4-0.8,2.1-2.1
		c-0.2-0.7-0.5-1.4-0.9-2c-0.1-0.3-0.2-0.5,0-0.7c0.3-0.5,0.6-1,0.9-1.5c0.5-0.9,0.3-1.9,0.2-2.9c-0.1-1.2-0.3-2.4-0.5-3.6
		c0.2-0.1,0.4-0.2,0.4-0.3C575.2,266,575.6,265.3,576,264.7z"/>
		<g id="alturas">
			<text transform="matrix(0.9839 0 0 1 95 320)" class="st6 st2 st7">Humano</text>
			<text transform="matrix(0.9839 0 0 1 220 320)" class="st6 st2 st7">Lemur Marrón</text>
			<text transform="matrix(0.9839 0 0 1 370 320)" class="st6 st2 st7">Lemur de</text>
				<text transform="matrix(0.9839 0 0 1 360 340)" class="st6 st2 st7">Bambú menor</text>
				<text transform="matrix(0.9839 0 0 1 505 320)" class="st6 st2 st7">Lemur de</text>
					<text transform="matrix(0.9839 0 0 1 495 340)" class="st6 st2 st7">Bambú mayor</text>
					<text transform="matrix(0.9839 0 0 1 640 320)" class="st6 st16 st7">Lemur de</text>
						<text transform="matrix(0.9839 0 0 1 635 340)" class="st6 st16 st7">cola anillada</text>
			<text transform="matrix(0.9839 0 0 1 800 320)" class="st6 st2 st7">Lemur Rufo</text>

		</g>
		<ellipse transform="matrix(0.7344 -0.6787 0.6787 0.7344 -33.8062 459.0386)" class="st5" cx="569.6" cy="272.7" rx="0.9" ry="1.3"/>
</g>
<polyline class="st14" points="840,141.6 840,84.9 264.5,84.9 264.5,141.6 "/>
<polyline class="st15" points="540.3,141.6 540.3,84.9 398.8,84.9 398.8,141.6 "/>
<polyline class="st16" points="575,54 575,84.9 673,84.9 673,141.6 "/>
<g>
	<text transform="matrix(1 0 0 1 533.5269 41.6797)" class="st9 st17 st18">Lemuridae</text>
</g>
</svg>
