<?xml version="1.0" encoding="utf-8"?>
<!-- Generator: Adobe Illustrator 22.0.1, SVG Export Plug-In . SVG Version: 6.00 Build 0)  -->
<svg version="1.1" id="Capa_1" xmlns="http://www.w3.org/2000/svg" xmlns:xlink="http://www.w3.org/1999/xlink" x="0px" y="0px"
	 viewBox="0 0 1000 1000" style="enable-background:new 0 0 1000 1000;" xml:space="preserve">
<style type="text/css">
	.st0{font-family:"Roboto", sans-serif}
	.st1{font-size:12px;}
	.st2{font-family:'Roboto-Regular';}
	.st3{font-size:18px;}
	.st4{fill:none;stroke:#000000;stroke-miterlimit:10;}
</style>
<image style="overflow:visible;enable-background:new    ;" width="2000" height="2000" xlink:href="LemurIlustraciónDigital.png"  transform="matrix(0.5 0 0 0.5 0 0)">
</image>
	<circle class="st2" cx="350" cy="250" r="150" stroke="orange" stroke-width="3" fill="none" />
<g id="su_vientre">


	<text transform="matrix(1 0 0 1 80 800)" class="st2 st3">Glándulas</text>
	<text transform="matrix(1 0 0 1 216.3547 754.5189)" class="st0 st1">             </text>
	<text transform="matrix(1 0 0 1 80 820)" class="st2 st3">odoríferas</text>
	<text transform="matrix(1 0 0 1 135.4953 776.1189)" class="st0 st1">         </text>
		<circle class="st2" cx="210" cy="800" r="40" stroke="orange" stroke-width="3" fill="none" />
</g>


	<g>
		<text transform="matrix(1 0 0 1 320 880)" class="st2 st3">Garra</text>
		<text transform="matrix(1 0 0 1 216.3547 754.5189)" class="st0 st1">             </text>
		<text transform="matrix(1 0 0 1 320 900)" class="st2 st3">de aseo</text>
		<text transform="matrix(1 0 0 1 135.4953 776.1189)" class="st0 st1">         </text>
		<circle class="st2" cx="420" cy="890" r="40" stroke="orange" stroke-width="3" fill="none" />
	</g>

</svg>
